<?xml version="1.0" encoding="utf-8"?>
<!-- Svg Vector Icons : http://www.onlinewebfonts.com/icon -->
<!DOCTYPE svg PUBLIC "-//W3C//DTD SVG 1.1//EN" "http://www.w3.org/Graphics/SVG/1.1/DTD/svg11.dtd">
<svg version="1.1" xmlns="http://www.w3.org/2000/svg" xmlns:xlink="http://www.w3.org/1999/xlink" x="0px" y="0px" viewBox="0 0 1000 1000" enable-background="new 0 0 1000 1000" xml:space="preserve">
<metadata> Svg Vector Icons : http://www.onlinewebfonts.com/icon </metadata>
<g><g transform="translate(0.000000,462.000000) scale(0.100000,-0.100000)"><path d="M3833,4026c-105.4-42.2-3175.4-1787.9-3206-1822.4c-30.7-34.5-34.5-86.2-34.5-435l-1.9-394.8l-65.2-103.5c-155.2-243.4-239.5-540.4-239.5-845.1c0-231.9,44.1-463.8,143.7-760.8c70.9-210.8,86.2-277.9,86.2-396.7c0-168.6,26.8-210.8,153.3-247.2l86.2-24.9l5.7-116.9c5.8-105.4,1.9-118.8-34.5-130.3c-47.9-15.3-74.7-69-143.7-277.9c-28.7-90.1-139.9-394.8-243.4-680.3C80.8-2909.2,54-3075.9,153.7-3384.5c65.2-199.3,268.3-458,412-525.1c36.4-17.2,38.3-34.5,38.3-212.7c-1.9-216.5,24.9-297,143.7-413.9c88.1-90.1,170.6-124.6,471.4-203.1l270.2-69l2786.4,7.7c2416.5,5.7,2832.3,9.6,3138.9,38.3c1345.3,122.7,2027.5,277.9,2303.5,527c138,124.6,208.8,366,172.5,578.7c-38.3,212.7-189.7,475.2-320,555.7c-30.7,19.2-847,285.5-1810.9,594.1c-963.9,308.5-1768.7,569.2-1787.9,578.7c-38.3,21.1-1155.6,883.4-1207.3,935.2c-38.3,36.4-90.1,373.7-281.7,1828.2l-95.8,728.2v1046.3c0,866.2-5.7,1063.6-28.7,1142.1C4294.8,3966.6,4028.5,4104.6,3833,4026z M4047.6,3706c26.8-28.7,30.7-159.1,36.4-1178.5c3.8-628.6,3.8-1144.1,0-1144.1c-3.8,0-53.7,30.7-111.2,69c-118.8,80.5-191.6,159.1-239.5,266.4c-44.1,95.8-44.1,164.8-5.7,358.4c44.1,216.5,30.7,507.8-28.7,642C3455.5,3271,2652.5,3008.4,1656,2052.2l-216.5-208.9h-270.2H899.1v92v92l1508.2,854.7c875.8,496.3,1531.1,856.6,1559.9,856.6C3994,3740.4,4030.4,3725.1,4047.6,3706z M3457.4,2721c113.1-122.6,130.3-335.4,55.6-693.7c-53.7-262.5,26.8-469.5,264.5-676.5l70.9-61.3l-99.6-9.6c-105.4-11.5-1697.9-107.3-1770.7-107.3c-38.3,0-44.1,9.6-44.1,76.7c0,134.1-23,143.7-413.9,170.6c-187.8,11.5-406.3,26.8-481,34.5l-139.9,11.5v82.4v84.3h308.5h310.4l231.9,226.1c651.6,634.3,1167,954.3,1513.9,937.1C3386.5,2790,3398,2786.1,3457.4,2721z M1345.6,1228.1c268.3-17.2,377.5-30.7,377.5-46c0-15.3-51.7-28.7-147.6-36.4c-82.4-7.7-159.1-23-172.5-34.5c-34.5-28.7-36.4-954.3-1.9-988.8c15.3-15.3,88.1-23,201.2-23c276,0,270.2-13.4-262.5-458c-281.7-237.6-452.3-366-473.3-362.2c-26.8,3.8-36.4,32.6-46,120.7c-7.7,63.2-36.4,176.3-65.2,249.1C648.1-76.9,607.8,97.5,598.2,348.5c-15.3,344.9,34.5,532.7,205.1,795.3c65.2,99.7,88.1,122.6,122.6,115C947,1255,1136.7,1241.6,1345.6,1228.1z M4137.7,1063.3c0-19.2,17.2-180.1,36.4-360.3c21.1-178.2,34.5-327.7,34.5-327.7c-9.6-7.7-2612-78.6-2623.5-70.9c-9.6,3.8-15.3,149.5-15.3,323.9c0,285.5,3.8,314.3,34.5,316.2c17.3,0,546.2,32.6,1172.8,72.8C4172.2,1107.4,4137.7,1105.5,4137.7,1063.3z M4356.2-469.7c49.8-354.5,99.7-657.3,111.2-672.6c13.4-15.4,323.9-258.7,689.9-544.2L5826-2204l1640.4-525.1c902.6-289.4,1646.1-528.9,1650-534.6c3.8-3.8-51.8-24.9-124.6-46c-70.9-21.1-268.3-92-436.9-157.1c-406.3-155.2-546.2-189.7-791.4-189.7c-431.2,0-900.7,162.9-1379.8,477.2c-97.8,65.2-189.7,116.9-205.1,116.9c-17.3,0-90.1-17.3-162.9-36.4c-161-46-153.3-47.9-548.1,139.9c-207,95.8-304.7,132.2-436.9,155.2c-540.4,92-1458.3-36.4-2460.6-346.9c-247.2-76.7-362.2-120.7-611.3-230c-34.5-15.3-63.2-24.9-63.2-21.1s212.7,130.3,471.4,283.6c346.9,203.1,479.1,291.3,507.8,335.4c74.7,122.6,32.6,329.6-82.4,394.8c-24.9,13.4-247.2,99.6-494.4,191.6c-247.2,92-440.8,166.7-431.2,168.6c34.5,0,1048.2-268.3,1236-327.7c500.2-161,973.5-251,1100-208.9c185.9,61.3,318.1,207,318.1,352.6c0,153.3-172.5,450.3-369.8,642c-99.7,93.9-130.3,74.7-115-80.5c13.4-153.3-15.3-243.4-99.7-318.1c-139.9-122.6-90.1-126.5-1513.9,132.2c-705.2,128.4-1301.2,237.6-1324.2,243.4c-51.7,11.5-109.2,107.3-80.5,136.1c23,23,51.7,266.4,55.6,477.2l1.9,136.1l438.8,367.9c241.5,201.2,448.4,383.3,458,402.4c11.5,19.2,19.2,67.1,19.2,103.5c0,38.3,1.9,70.9,5.7,70.9c3.8,3.8,1912.5,67.1,2142.5,70.9l124.6,3.8L4356.2-469.7z M971.9-1811.2l95.8-149.5l789.5-287.5c435-157.1,808.7-300.9,829.8-318.1c93.9-72.8,67.1-92-887.3-653.5l-904.5-528.9l-95.8,49.8c-138,72.8-276,214.6-337.3,343c-44.1,95.8-51.7,134.1-49.8,293.2c0,147.6,9.6,207,49.8,316.2c38.3,105.4,346.8,944.7,389,1059.7c3.8,11.5,11.5,23,17.2,23C872.3-1663.6,920.2-1730.7,971.9-1811.2z M5067.1-3014.6c63.2-17.2,224.2-82.4,356.4-143.7c394.8-185.9,425.4-193.6,619-143.7l113.1,28.7l174.4-113.1c316.2-203.1,596-327.7,950.5-417.8c170.6-44.1,241.5-51.7,469.5-51.7c312.4-1.9,375.6,13.4,814.4,178.2c413.9,157.1,712.9,251,816.3,256.8l88.2,3.8l61.3-105.4c51.7-90.1,59.4-124.6,59.4-239.5c0-187.8-44.1-266.4-189.7-341.1c-297-151.4-1257.1-306.6-2334.1-377.5l-320-21.1L6213.1-4059c-293.2,241.5-571.1,459.9-619,484.8c-61.3,28.8-130.3,44.1-239.5,47.9c-141.8,5.8-168.6,0-383.3-78.6c-371.8-139.9-534.7-138-898.8,9.6c-276,111.1-435,151.4-657.3,162.9c-224.2,13.4-421.6-13.4-620.9-80.5c-72.8-24.9-490.6-231.9-927.5-459.9c-546.2-283.6-808.7-410.1-833.6-402.4c-21.1,5.7-59.4,38.3-86.2,69c-36.4,46-47.9,80.5-47.9,151.4c0,166.7,7.7,176.3,272.1,268.3c262.5,92,875.8,325.8,1126.8,429.2c435,180.1,1381.7,404.4,1973.8,469.5C4498-2962.9,4927.2-2976.3,5067.1-3014.6z M3668.2-3666.2c57.5-15.3,203.1-67.1,323.9-115c283.6-111.1,381.3-132.2,603.6-120.7c159.1,9.6,214.6,21.1,423.5,101.6c208.9,78.6,253,88.1,341.1,80.5c55.6-5.8,132.2-28.8,168.6-49.8c36.4-23,253-193.5,479.1-381.3l412-339.2l-197.4-5.7l-197.4-5.8l-210.8,220.4c-143.7,151.4-237.6,233.8-297,258.7c-103.5,46-260.6,51.7-356.4,11.5c-36.4-15.3-174.4-130.3-304.7-258.7l-239.5-230h-379.4l-377.5,1.9l-216.5,276c-254.9,321.9-300.9,354.5-513.6,354.5c-239.5-1.9-532.7-155.2-914.1-477.2l-184-155.2h-266.4c-260.6,0-387.1,11.5-387.1,36.4c0,23,1329.9,703.3,1479.4,755c84.3,30.7,207,61.3,270.2,70.9C3275.4-3616.3,3528.3-3629.7,3668.2-3666.2z"/><path d="M2802,2268.7c-82.4-72.8-235.7-214.6-341.1-314.3c-184-174.4-191.6-185.9-191.6-264.4c0-67.1,11.5-90.1,63.2-136.1l61.3-55.6h323.9c281.7,0,325.8,3.8,350.7,34.5c17.2,17.3,57.5,178.2,92,364.1c53.7,283.6,57.5,339.2,38.3,389c-32.6,76.7-90.1,113.1-176.3,113.1C2959.2,2399,2928.5,2379.9,2802,2268.7z M2993.6,2107.7c-5.7-34.5-24.9-136-42.2-226.1l-32.6-162.9l-214.6-5.7l-214.6-5.8l245.3,230c134.1,126.5,249.1,230,256.8,230C2999.4,2169.1,3001.3,2140.3,2993.6,2107.7z"/><path d="M1303.4-2460.8c-51.7-65.1-51.7-122.6-1.9-176.3c38.3-40.3,55.6-42.2,371.8-42.2c306.6,0,333.4,1.9,366,38.3c47.9,51.7,42.2,153.3-11.5,195.5c-34.5,30.7-84.3,34.5-362.2,34.5h-323.9L1303.4-2460.8z"/><path d="M975.8-2826.8c-47.9-61.3-38.3-132.2,23-182.1c32.6-30.7,82.4-34.5,354.5-34.5c308.5,0,314.3,0,360.3,47.9c57.5,57.5,59.4,103.5,7.7,170.5l-38.3,49.8h-333.4H1016L975.8-2826.8z"/><path d="M694-3143c-92-46-97.7-197.4-7.7-243.4c21.1-13.4,164.8-21.1,343-21.1c270.2,0,310.4,3.8,350.7,36.4c53.7,44.1,61.3,159.1,11.5,208.9c-28.7,26.8-78.6,32.6-344.9,36.4C853.1-3121.9,720.9-3129.6,694-3143z"/></g></g>
</svg>